<svg width="40" height="40" viewBox="0 0 40 40" fill="none" xmlns="http://www.w3.org/2000/svg">
<g filter="url(#filter0_i_172_15433)">
<rect width="40" height="40" rx="20" fill="#1F2937"/>
<rect width="40" height="40" rx="20" fill="white" fill-opacity="0.1"/>
<path d="M17.696 9.25H29.7122L29.0583 13.8833H18.3913C17.7448 13.8833 17.1558 14.3921 17.0655 15.0317L16.9338 15.9651C16.8397 16.6322 17.3226 17.1833 17.9961 17.1833H24.1481C26.6109 17.1833 28.3165 19.1394 27.9742 21.5651L27.4473 25.2984C27.1011 27.7516 24.7938 29.75 22.304 29.75H10.2878L10.9417 25.1167H21.6087C22.2552 25.1167 22.8442 24.6079 22.9345 23.9683L23.0662 23.0349C23.1603 22.3678 22.6774 21.8167 22.0039 21.8167H15.8519C13.3891 21.8167 11.6835 19.8606 12.0258 17.4349L12.5527 13.7016C12.8989 11.2484 15.2062 9.25 17.696 9.25Z" fill="white"/>
<path d="M17.696 9.25H29.7122L29.0583 13.8833H18.3913C17.7448 13.8833 17.1558 14.3921 17.0655 15.0317L16.9338 15.9651C16.8397 16.6322 17.3226 17.1833 17.9961 17.1833H24.1481C26.6109 17.1833 28.3165 19.1394 27.9742 21.5651L27.4473 25.2984C27.1011 27.7516 24.7938 29.75 22.304 29.75H10.2878L10.9417 25.1167H21.6087C22.2552 25.1167 22.8442 24.6079 22.9345 23.9683L23.0662 23.0349C23.1603 22.3678 22.6774 21.8167 22.0039 21.8167H15.8519C13.3891 21.8167 11.6835 19.8606 12.0258 17.4349L12.5527 13.7016C12.8989 11.2484 15.2062 9.25 17.696 9.25Z" stroke="url(#paint0_linear_172_15433)" stroke-width="0.5"/>
<path d="M17.696 9.25H29.7122L29.0583 13.8833H18.3913C17.7448 13.8833 17.1558 14.3921 17.0655 15.0317L16.9338 15.9651C16.8397 16.6322 17.3226 17.1833 17.9961 17.1833H24.1481C26.6109 17.1833 28.3165 19.1394 27.9742 21.5651L27.4473 25.2984C27.1011 27.7516 24.7938 29.75 22.304 29.75H10.2878L10.9417 25.1167H21.6087C22.2552 25.1167 22.8442 24.6079 22.9345 23.9683L23.0662 23.0349C23.1603 22.3678 22.6774 21.8167 22.0039 21.8167H15.8519C13.3891 21.8167 11.6835 19.8606 12.0258 17.4349L12.5527 13.7016C12.8989 11.2484 15.2062 9.25 17.696 9.25Z" stroke="black" stroke-opacity="0.2" stroke-width="0.5"/>
</g>
<defs>
<filter id="filter0_i_172_15433" x="0" y="-4" width="40" height="44" filterUnits="userSpaceOnUse" color-interpolation-filters="sRGB">
<feFlood flood-opacity="0" result="BackgroundImageFix"/>
<feBlend mode="normal" in="SourceGraphic" in2="BackgroundImageFix" result="shape"/>
<feColorMatrix in="SourceAlpha" type="matrix" values="0 0 0 0 0 0 0 0 0 0 0 0 0 0 0 0 0 0 127 0" result="hardAlpha"/>
<feOffset dy="-4"/>
<feGaussianBlur stdDeviation="4"/>
<feComposite in2="hardAlpha" operator="arithmetic" k2="-1" k3="1"/>
<feColorMatrix type="matrix" values="0 0 0 0 1 0 0 0 0 1 0 0 0 0 1 0 0 0 0.14 0"/>
<feBlend mode="normal" in2="shape" result="effect1_innerShadow_172_15433"/>
</filter>
<linearGradient id="paint0_linear_172_15433" x1="55.3018" y1="-41.9695" x2="-5.79773" y2="5.23684" gradientUnits="userSpaceOnUse">
<stop stop-color="white"/>
<stop offset="1" stop-color="white" stop-opacity="0"/>
</linearGradient>
</defs>
</svg>
