<svg width="118" height="40" viewBox="0 0 118 40" fill="none" xmlns="http://www.w3.org/2000/svg">
<g filter="url(#filter0_i_172_15438)">
<rect width="40" height="40" rx="20" fill="#1F2937"/>
<rect width="40" height="40" rx="20" fill="white" fill-opacity="0.1"/>
<path d="M17.696 9.25H29.7122L29.0583 13.8833H18.3913C17.7448 13.8833 17.1558 14.3921 17.0655 15.0317L16.9338 15.9651C16.8397 16.6322 17.3226 17.1833 17.9961 17.1833H24.1481C26.6109 17.1833 28.3165 19.1394 27.9742 21.5651L27.4473 25.2984C27.1011 27.7516 24.7938 29.75 22.304 29.75H10.2878L10.9417 25.1167H21.6087C22.2552 25.1167 22.8442 24.6079 22.9345 23.9683L23.0662 23.0349C23.1603 22.3678 22.6774 21.8167 22.0039 21.8167H15.8519C13.3891 21.8167 11.6835 19.8606 12.0258 17.4349L12.5527 13.7016C12.8989 11.2484 15.2062 9.25 17.696 9.25Z" fill="white"/>
<path d="M17.696 9.25H29.7122L29.0583 13.8833H18.3913C17.7448 13.8833 17.1558 14.3921 17.0655 15.0317L16.9338 15.9651C16.8397 16.6322 17.3226 17.1833 17.9961 17.1833H24.1481C26.6109 17.1833 28.3165 19.1394 27.9742 21.5651L27.4473 25.2984C27.1011 27.7516 24.7938 29.75 22.304 29.75H10.2878L10.9417 25.1167H21.6087C22.2552 25.1167 22.8442 24.6079 22.9345 23.9683L23.0662 23.0349C23.1603 22.3678 22.6774 21.8167 22.0039 21.8167H15.8519C13.3891 21.8167 11.6835 19.8606 12.0258 17.4349L12.5527 13.7016C12.8989 11.2484 15.2062 9.25 17.696 9.25Z" stroke="url(#paint0_linear_172_15438)" stroke-width="0.5"/>
<path d="M17.696 9.25H29.7122L29.0583 13.8833H18.3913C17.7448 13.8833 17.1558 14.3921 17.0655 15.0317L16.9338 15.9651C16.8397 16.6322 17.3226 17.1833 17.9961 17.1833H24.1481C26.6109 17.1833 28.3165 19.1394 27.9742 21.5651L27.4473 25.2984C27.1011 27.7516 24.7938 29.75 22.304 29.75H10.2878L10.9417 25.1167H21.6087C22.2552 25.1167 22.8442 24.6079 22.9345 23.9683L23.0662 23.0349C23.1603 22.3678 22.6774 21.8167 22.0039 21.8167H15.8519C13.3891 21.8167 11.6835 19.8606 12.0258 17.4349L12.5527 13.7016C12.8989 11.2484 15.2062 9.25 17.696 9.25Z" stroke="black" stroke-opacity="0.2" stroke-width="0.5"/>
</g>
<path d="M60.304 21.216C58.064 21.216 56.272 20.72 54.928 19.728C53.584 18.72 52.8 17.304 52.576 15.48H56.128C56.24 16.408 56.688 17.144 57.472 17.688C58.256 18.216 59.256 18.48 60.472 18.48C61.464 18.48 62.224 18.304 62.752 17.952C63.296 17.6 63.568 17.128 63.568 16.536C63.568 15.976 63.408 15.528 63.088 15.192C62.768 14.84 62.216 14.56 61.432 14.352L58.216 13.464C56.568 13 55.36 12.368 54.592 11.568C53.84 10.752 53.464 9.736 53.464 8.52C53.464 7.48 53.728 6.584 54.256 5.832C54.8 5.064 55.56 4.48 56.536 4.08C57.512 3.664 58.656 3.456 59.968 3.456C61.984 3.456 63.592 3.936 64.792 4.896C65.992 5.84 66.672 7.096 66.832 8.664H63.28C63.12 7.816 62.728 7.192 62.104 6.792C61.496 6.392 60.712 6.192 59.752 6.192C58.92 6.192 58.256 6.352 57.76 6.672C57.264 6.992 57.016 7.424 57.016 7.968C57.016 8.384 57.152 8.768 57.424 9.12C57.696 9.456 58.264 9.744 59.128 9.984L62.344 10.872C64.04 11.336 65.256 11.976 65.992 12.792C66.744 13.592 67.12 14.608 67.12 15.84C67.12 17.568 66.52 18.896 65.32 19.824C64.12 20.752 62.448 21.216 60.304 21.216ZM77.5203 21.24C76.2723 21.24 75.1202 21.024 74.0642 20.592C73.0082 20.144 72.0882 19.52 71.3042 18.72C70.5362 17.92 69.9362 16.976 69.5042 15.888C69.0722 14.784 68.8562 13.584 68.8562 12.288C68.8562 10.992 69.0642 9.808 69.4802 8.736C69.9122 7.664 70.5122 6.736 71.2802 5.952C72.0642 5.152 72.9842 4.544 74.0402 4.128C75.0962 3.696 76.2562 3.48 77.5203 3.48C78.9443 3.48 80.2242 3.76 81.3602 4.32C82.5122 4.864 83.4483 5.64 84.1683 6.648C84.9043 7.64 85.3523 8.808 85.5123 10.152H81.9122C81.7043 8.92 81.2003 7.992 80.4003 7.368C79.6003 6.728 78.6483 6.408 77.5443 6.408C76.5683 6.408 75.7043 6.64 74.9522 7.104C74.2162 7.568 73.6402 8.24 73.2242 9.12C72.8082 9.984 72.6002 11.032 72.6002 12.264C72.6002 13.512 72.8082 14.592 73.2242 15.504C73.6562 16.4 74.2482 17.096 75.0002 17.592C75.7522 18.072 76.6162 18.312 77.5923 18.312C78.6323 18.312 79.5522 18 80.3522 17.376C81.1522 16.752 81.6722 15.824 81.9122 14.592H85.5602C85.3523 15.936 84.8803 17.112 84.1443 18.12C83.4083 19.112 82.4723 19.88 81.3362 20.424C80.2003 20.968 78.9283 21.24 77.5203 21.24ZM87.8162 21V3.72H93.5762L98.3762 20.376H96.2882L101.088 3.72H106.872V21H103.224V4.752H103.848L99.1682 21H95.3522L90.7202 4.896H91.3202V21H87.8162Z" fill="#111827"/>
<path d="M56.692 36.12C56.1 36.12 55.552 36.012 55.048 35.796C54.552 35.572 54.12 35.264 53.752 34.872C53.384 34.472 53.1 34.004 52.9 33.468C52.7 32.924 52.6 32.328 52.6 31.68C52.6 31.032 52.7 30.44 52.9 29.904C53.1 29.36 53.38 28.892 53.74 28.5C54.108 28.1 54.54 27.792 55.036 27.576C55.54 27.352 56.088 27.24 56.68 27.24C57.328 27.24 57.908 27.372 58.42 27.636C58.94 27.9 59.364 28.272 59.692 28.752C60.028 29.232 60.236 29.792 60.316 30.432H59.332C59.236 29.72 58.952 29.16 58.48 28.752C58.016 28.336 57.42 28.128 56.692 28.128C56.076 28.128 55.536 28.28 55.072 28.584C54.608 28.88 54.248 29.296 53.992 29.832C53.736 30.36 53.608 30.976 53.608 31.68C53.608 32.384 53.736 33.004 53.992 33.54C54.248 34.068 54.608 34.484 55.072 34.788C55.536 35.084 56.072 35.232 56.68 35.232C57.424 35.232 58.032 35.024 58.504 34.608C58.984 34.192 59.268 33.632 59.356 32.928H60.34C60.26 33.568 60.052 34.128 59.716 34.608C59.388 35.088 58.964 35.46 58.444 35.724C57.932 35.988 57.348 36.12 56.692 36.12ZM64.3634 36.12C63.7634 36.12 63.2354 35.98 62.7794 35.7C62.3234 35.42 61.9674 35.04 61.7114 34.56C61.4634 34.072 61.3394 33.524 61.3394 32.916C61.3394 32.3 61.4674 31.756 61.7234 31.284C61.9794 30.812 62.3314 30.44 62.7794 30.168C63.2354 29.896 63.7634 29.76 64.3634 29.76C64.9714 29.76 65.4994 29.896 65.9474 30.168C66.4034 30.44 66.7554 30.812 67.0034 31.284C67.2594 31.756 67.3874 32.3 67.3874 32.916C67.3874 33.524 67.2594 34.072 67.0034 34.56C66.7554 35.04 66.4034 35.42 65.9474 35.7C65.4994 35.98 64.9714 36.12 64.3634 36.12ZM64.3634 35.304C64.7794 35.304 65.1394 35.204 65.4434 35.004C65.7474 34.796 65.9834 34.512 66.1514 34.152C66.3194 33.792 66.4034 33.376 66.4034 32.904C66.4034 32.2 66.2154 31.636 65.8394 31.212C65.4714 30.788 64.9794 30.576 64.3634 30.576C63.7554 30.576 63.2634 30.788 62.8874 31.212C62.5114 31.636 62.3234 32.2 62.3234 32.904C62.3234 33.376 62.4074 33.792 62.5754 34.152C62.7434 34.512 62.9794 34.796 63.2834 35.004C63.5954 35.204 63.9554 35.304 64.3634 35.304ZM68.8272 36V29.88H69.7272V31.32H69.7872V36H68.8272ZM73.2072 36V31.992C73.2072 31.528 73.0912 31.18 72.8592 30.948C72.6272 30.716 72.2832 30.6 71.8272 30.6C71.4272 30.6 71.0712 30.688 70.7592 30.864C70.4552 31.04 70.2152 31.284 70.0392 31.596C69.8712 31.908 69.7872 32.272 69.7872 32.688L69.6312 31.236C69.8392 30.78 70.1552 30.42 70.5792 30.156C71.0112 29.892 71.4992 29.76 72.0432 29.76C72.6832 29.76 73.1952 29.944 73.5792 30.312C73.9712 30.672 74.1672 31.148 74.1672 31.74V36H73.2072ZM78.2947 36.108C77.6147 36.108 77.1187 35.956 76.8067 35.652C76.5027 35.34 76.3507 34.892 76.3507 34.308V28.452L77.3107 28.092V34.296C77.3107 34.64 77.3987 34.892 77.5747 35.052C77.7507 35.212 78.0387 35.292 78.4387 35.292C78.5987 35.292 78.7347 35.284 78.8467 35.268C78.9667 35.244 79.0627 35.216 79.1347 35.184V36C79.0547 36.032 78.9387 36.056 78.7867 36.072C78.6427 36.096 78.4787 36.108 78.2947 36.108ZM75.0907 30.696V29.88H79.1347V30.696H75.0907ZM80.3702 36V29.88H81.2702V31.44H81.3302V36H80.3702ZM81.3302 32.808L81.1742 31.356C81.3182 30.836 81.5742 30.44 81.9422 30.168C82.3102 29.896 82.7342 29.76 83.2142 29.76C83.4142 29.76 83.5502 29.776 83.6222 29.808V30.732C83.5822 30.716 83.5262 30.708 83.4542 30.708C83.3822 30.7 83.2942 30.696 83.1902 30.696C82.5822 30.696 82.1182 30.88 81.7982 31.248C81.4862 31.608 81.3302 32.128 81.3302 32.808ZM88.4504 36C88.4184 35.864 88.3944 35.708 88.3784 35.532C88.3704 35.356 88.3664 35.132 88.3664 34.86H88.3064V31.932C88.3064 31.468 88.1984 31.128 87.9824 30.912C87.7744 30.688 87.4344 30.576 86.9624 30.576C86.4984 30.576 86.1264 30.672 85.8464 30.864C85.5744 31.048 85.4224 31.312 85.3904 31.656H84.4664C84.5064 31.064 84.7544 30.6 85.2104 30.264C85.6664 29.928 86.2624 29.76 86.9984 29.76C87.7584 29.76 88.3224 29.94 88.6904 30.3C89.0584 30.66 89.2424 31.2 89.2424 31.92V34.86C89.2424 35.036 89.2544 35.22 89.2784 35.412C89.3024 35.596 89.3344 35.792 89.3744 36H88.4504ZM86.3504 36.12C85.7184 36.12 85.2144 35.968 84.8384 35.664C84.4704 35.352 84.2864 34.928 84.2864 34.392C84.2864 33.856 84.4704 33.44 84.8384 33.144C85.2064 32.848 85.7424 32.64 86.4464 32.52L88.5824 32.16V32.952L86.5904 33.264C86.1424 33.336 85.8024 33.456 85.5704 33.624C85.3384 33.792 85.2224 34.036 85.2224 34.356C85.2224 34.668 85.3264 34.904 85.5344 35.064C85.7504 35.224 86.0664 35.304 86.4824 35.304C87.0184 35.304 87.4544 35.184 87.7904 34.944C88.1344 34.696 88.3064 34.376 88.3064 33.984L88.4624 34.836C88.3344 35.244 88.0824 35.56 87.7064 35.784C87.3384 36.008 86.8864 36.12 86.3504 36.12ZM93.5168 36.12C92.9568 36.12 92.4568 35.984 92.0168 35.712C91.5848 35.432 91.2408 35.052 90.9848 34.572C90.7368 34.084 90.6128 33.532 90.6128 32.916C90.6128 32.3 90.7368 31.756 90.9848 31.284C91.2408 30.812 91.5848 30.44 92.0168 30.168C92.4568 29.896 92.9528 29.76 93.5048 29.76C93.9608 29.76 94.3688 29.848 94.7288 30.024C95.0968 30.2 95.3968 30.452 95.6288 30.78C95.8688 31.1 96.0208 31.476 96.0848 31.908H95.1968C95.1168 31.516 94.9328 31.196 94.6448 30.948C94.3568 30.7 93.9848 30.576 93.5288 30.576C93.1368 30.576 92.7968 30.672 92.5088 30.864C92.2208 31.056 91.9968 31.328 91.8368 31.68C91.6768 32.032 91.5968 32.444 91.5968 32.916C91.5968 33.388 91.6768 33.804 91.8368 34.164C91.9968 34.524 92.2208 34.804 92.5088 35.004C92.8048 35.204 93.1488 35.304 93.5408 35.304C93.9808 35.304 94.3488 35.184 94.6448 34.944C94.9408 34.696 95.1288 34.376 95.2088 33.984H96.0968C96.0248 34.408 95.8648 34.784 95.6168 35.112C95.3768 35.432 95.0768 35.68 94.7168 35.856C94.3568 36.032 93.9568 36.12 93.5168 36.12ZM99.9158 36.108C99.2358 36.108 98.7398 35.956 98.4278 35.652C98.1238 35.34 97.9718 34.892 97.9718 34.308V28.452L98.9318 28.092V34.296C98.9318 34.64 99.0198 34.892 99.1958 35.052C99.3718 35.212 99.6598 35.292 100.06 35.292C100.22 35.292 100.356 35.284 100.468 35.268C100.588 35.244 100.684 35.216 100.756 35.184V36C100.676 36.032 100.56 36.056 100.408 36.072C100.264 36.096 100.1 36.108 99.9158 36.108ZM96.7118 30.696V29.88H100.756V30.696H96.7118ZM104.395 36.12C103.795 36.12 103.267 35.98 102.811 35.7C102.355 35.42 101.999 35.04 101.743 34.56C101.495 34.072 101.371 33.524 101.371 32.916C101.371 32.3 101.499 31.756 101.755 31.284C102.011 30.812 102.363 30.44 102.811 30.168C103.267 29.896 103.795 29.76 104.395 29.76C105.003 29.76 105.531 29.896 105.979 30.168C106.435 30.44 106.787 30.812 107.035 31.284C107.291 31.756 107.419 32.3 107.419 32.916C107.419 33.524 107.291 34.072 107.035 34.56C106.787 35.04 106.435 35.42 105.979 35.7C105.531 35.98 105.003 36.12 104.395 36.12ZM104.395 35.304C104.811 35.304 105.171 35.204 105.475 35.004C105.779 34.796 106.015 34.512 106.183 34.152C106.351 33.792 106.435 33.376 106.435 32.904C106.435 32.2 106.247 31.636 105.871 31.212C105.503 30.788 105.011 30.576 104.395 30.576C103.787 30.576 103.295 30.788 102.919 31.212C102.543 31.636 102.355 32.2 102.355 32.904C102.355 33.376 102.439 33.792 102.607 34.152C102.775 34.512 103.011 34.796 103.315 35.004C103.627 35.204 103.987 35.304 104.395 35.304ZM108.858 36V29.88H109.758V31.44H109.818V36H108.858ZM109.818 32.808L109.662 31.356C109.806 30.836 110.062 30.44 110.43 30.168C110.798 29.896 111.222 29.76 111.702 29.76C111.902 29.76 112.038 29.776 112.11 29.808V30.732C112.07 30.716 112.014 30.708 111.942 30.708C111.87 30.7 111.782 30.696 111.678 30.696C111.07 30.696 110.606 30.88 110.286 31.248C109.974 31.608 109.818 32.128 109.818 32.808ZM115.259 36.12C114.507 36.12 113.907 35.948 113.459 35.604C113.011 35.252 112.755 34.756 112.691 34.116H113.615C113.671 34.508 113.843 34.808 114.131 35.016C114.419 35.224 114.803 35.328 115.283 35.328C115.707 35.328 116.039 35.248 116.279 35.088C116.519 34.928 116.639 34.7 116.639 34.404C116.639 34.196 116.571 34.016 116.435 33.864C116.299 33.704 116.027 33.572 115.619 33.468L114.635 33.216C114.075 33.072 113.655 32.852 113.375 32.556C113.095 32.252 112.955 31.892 112.955 31.476C112.955 30.948 113.151 30.532 113.543 30.228C113.935 29.916 114.467 29.76 115.139 29.76C115.803 29.76 116.343 29.92 116.759 30.24C117.175 30.56 117.411 31.004 117.467 31.572H116.543C116.487 31.244 116.335 30.992 116.087 30.816C115.839 30.64 115.511 30.552 115.103 30.552C114.711 30.552 114.407 30.628 114.191 30.78C113.975 30.924 113.867 31.132 113.867 31.404C113.867 31.612 113.943 31.792 114.095 31.944C114.255 32.096 114.519 32.224 114.887 32.328L115.847 32.592C116.415 32.744 116.843 32.976 117.131 33.288C117.419 33.6 117.563 33.976 117.563 34.416C117.563 34.952 117.359 35.372 116.951 35.676C116.543 35.972 115.979 36.12 115.259 36.12Z" fill="#6B7280"/>
<defs>
<filter id="filter0_i_172_15438" x="0" y="-4" width="40" height="44" filterUnits="userSpaceOnUse" color-interpolation-filters="sRGB">
<feFlood flood-opacity="0" result="BackgroundImageFix"/>
<feBlend mode="normal" in="SourceGraphic" in2="BackgroundImageFix" result="shape"/>
<feColorMatrix in="SourceAlpha" type="matrix" values="0 0 0 0 0 0 0 0 0 0 0 0 0 0 0 0 0 0 127 0" result="hardAlpha"/>
<feOffset dy="-4"/>
<feGaussianBlur stdDeviation="4"/>
<feComposite in2="hardAlpha" operator="arithmetic" k2="-1" k3="1"/>
<feColorMatrix type="matrix" values="0 0 0 0 1 0 0 0 0 1 0 0 0 0 1 0 0 0 0.14 0"/>
<feBlend mode="normal" in2="shape" result="effect1_innerShadow_172_15438"/>
</filter>
<linearGradient id="paint0_linear_172_15438" x1="55.3018" y1="-41.9695" x2="-5.79773" y2="5.23684" gradientUnits="userSpaceOnUse">
<stop stop-color="white"/>
<stop offset="1" stop-color="white" stop-opacity="0"/>
</linearGradient>
</defs>
</svg>
